<svg width="57" height="56" viewBox="0 0 57 56" fill="none" xmlns="http://www.w3.org/2000/svg">
<path d="M28.5 7.00011C24.3244 7.00521 20.3213 8.66621 17.3687 11.6188C14.4161 14.5714 12.7551 18.5745 12.75 22.7501C12.8442 25.8201 13.746 28.811 15.3645 31.4214L27.0177 49.9854C27.1861 50.2216 27.4084 50.4142 27.6662 50.5471C27.9241 50.6799 28.2099 50.7493 28.5 50.7493C28.7901 50.7493 29.0759 50.6799 29.3338 50.5471C29.5916 50.4142 29.8139 50.2216 29.9823 49.9854L41.5847 31.5124C43.2304 28.8778 44.1499 25.8548 44.25 22.7501C44.2449 18.5745 42.5839 14.5714 39.6313 11.6188C36.6787 8.66621 32.6756 7.00521 28.5 7.00011ZM28.5 45.7661L18.3815 29.6521C17.0777 27.5783 16.3426 25.1979 16.25 22.7501C16.25 19.5012 17.5406 16.3854 19.8379 14.0881C22.1353 11.7907 25.2511 10.5001 28.5 10.5001C31.7489 10.5001 34.8647 11.7907 37.1621 14.0881C39.4594 16.3854 40.75 19.5012 40.75 22.7501C40.6502 25.2322 39.8968 27.6439 38.566 29.7414L28.5 45.7661Z" fill="white"/>
<path d="M28.9 17.868C28.34 17.868 27.9107 18.0173 27.612 18.316C27.3133 18.6333 27.164 19.072 27.164 19.632V23.384H23.496C22.9547 23.384 22.5347 23.524 22.236 23.804C21.956 24.084 21.816 24.4947 21.816 25.036C21.816 25.5773 21.956 25.988 22.236 26.268C22.5347 26.548 22.9547 26.688 23.496 26.688H27.164V30.3C27.164 30.86 27.3133 31.2893 27.612 31.588C27.9107 31.8867 28.3493 32.036 28.928 32.036C29.488 32.036 29.908 31.8867 30.188 31.588C30.4867 31.2893 30.636 30.86 30.636 30.3V26.688H34.304C34.8453 26.688 35.256 26.548 35.536 26.268C35.8347 25.988 35.984 25.5773 35.984 25.036C35.984 24.4947 35.8347 24.084 35.536 23.804C35.256 23.524 34.8453 23.384 34.304 23.384H30.636V19.632C30.636 19.072 30.4867 18.6333 30.188 18.316C29.908 18.0173 29.4787 17.868 28.9 17.868Z" fill="white"/>
</svg>
