<svg width="57" height="56" viewBox="0 0 57 56" fill="none" xmlns="http://www.w3.org/2000/svg">
<path d="M28.5 48.9999C24.3244 48.9948 20.3213 47.3338 17.3687 44.3812C14.4161 41.4286 12.7551 37.4255 12.75 33.2499C12.8442 30.1799 13.746 27.189 15.3645 24.5786L27.0177 6.01464C27.1861 5.7784 27.4084 5.58582 27.6662 5.45294C27.9241 5.32006 28.2099 5.25073 28.5 5.25073C28.7901 5.25073 29.0759 5.32006 29.3338 5.45294C29.5916 5.58582 29.8139 5.7784 29.9823 6.01464L41.5847 24.4876C43.2304 27.1222 44.1499 30.1452 44.25 33.2499C44.2449 37.4255 42.5839 41.4286 39.6313 44.3812C36.6787 47.3338 32.6756 48.9948 28.5 48.9999V48.9999ZM28.5 10.2339L18.3815 26.3479C17.0777 28.4217 16.3426 30.8021 16.25 33.2499C16.25 36.4988 17.5406 39.6146 19.8379 41.9119C22.1353 44.2093 25.2511 45.4999 28.5 45.4999C31.7489 45.4999 34.8647 44.2093 37.1621 41.9119C39.4594 39.6146 40.75 36.4988 40.75 33.2499C40.6502 30.7678 39.8968 28.3562 38.566 26.2586L28.5 10.2339Z" fill="white"/>
<path d="M25.468 34.632C24.828 34.632 24.2947 34.4187 23.868 33.992C23.4413 33.5653 23.228 33.032 23.228 32.392C23.228 31.752 23.4413 31.2293 23.868 30.824C24.2947 30.3973 24.828 30.184 25.468 30.184H31.804C32.444 30.184 32.9773 30.3973 33.404 30.824C33.8307 31.2293 34.044 31.752 34.044 32.392C34.044 33.032 33.8307 33.5653 33.404 33.992C32.9773 34.4187 32.444 34.632 31.804 34.632H25.468Z" fill="white"/>
</svg>
